<svg width="190" height="65" viewBox="0 0 190 65" fill="none" xmlns="http://www.w3.org/2000/svg">
<path d="M69.4039 34.6587H69.402C86.6622 13.7059 59.7126 -10.7469 41.337 5.20845C40.5269 5.91197 39.3413 5.92702 38.5204 5.23631C18.7075 -11.4364 -6.20552 15.3481 10.4808 34.6587C10.8043 35.0012 32.3152 57.7697 38.3737 64.1825C39.2284 65.0872 40.6542 65.0875 41.5089 64.1829C47.5282 57.812 68.6656 35.44 69.4039 34.6587Z" fill="#4A88FF"/>
<path d="M41.337 5.21028C40.942 5.55326 40.4577 5.73124 39.97 5.74501V64.8616C40.5304 64.8542 41.0887 64.6293 41.5087 64.1847C47.528 57.8138 68.6653 35.4418 69.4036 34.6605H69.4018C86.6621 13.7079 59.7125 -10.7451 41.337 5.21028Z" fill="#4172F2"/>
<path d="M45.133 49.1545C44.1058 49.1545 43.197 48.4772 42.8927 47.482L38.2411 32.2732H32.4088C31.3913 32.2732 30.49 31.609 30.177 30.6287L27.3416 21.7471L24.1979 31.1134C23.8746 32.0766 22.9816 32.7242 21.9771 32.7242H2.3455C1.05016 32.7242 0 31.6608 0 30.349C0 29.0373 1.05016 27.9738 2.3455 27.9738H20.2971L25.1769 13.4361C25.5023 12.4667 26.4011 11.8109 27.4151 11.8254C28.426 11.833 29.3182 12.4959 29.6294 13.4699L34.1157 27.5229H39.9702C40.9983 27.5229 41.9067 28.2009 42.2106 29.1953L45.0628 38.5209L51.9005 14.7183C52.1949 13.6933 53.1255 12.9977 54.1825 13.0067C55.2366 13.0203 56.1523 13.7443 56.4207 14.7764L60.2283 29.4064H77.6544C78.9497 29.4064 79.9999 30.4698 79.9999 31.7816C79.9999 33.0933 78.9497 34.1568 77.6544 34.1568H58.421C57.3558 34.1568 56.4243 33.43 56.1529 32.3869L54.0413 24.2731L47.3854 47.4428C47.096 48.4497 46.1891 49.1453 45.1535 49.1545C45.1466 49.1545 45.1397 49.1545 45.133 49.1545Z" fill="#FFF5F5"/>
<path d="M42.8927 47.4819C43.197 48.4771 44.1058 49.1545 45.133 49.1543H45.1533C46.1889 49.1453 47.096 48.4495 47.3853 47.4426L54.0412 24.273L56.1527 32.3868C56.4242 33.4298 57.3555 34.1566 58.4208 34.1566H77.6544C78.9497 34.1566 79.9999 33.0932 79.9999 31.7814C79.9999 30.4697 78.9497 29.4063 77.6544 29.4063H60.2283L56.4207 14.7762C56.1521 13.744 55.2366 13.0202 54.1825 13.0066C53.1255 12.9975 52.1949 13.6931 51.9005 14.7181L45.0628 38.5208L42.2106 29.1952C41.9067 28.2006 40.9983 27.5227 39.9702 27.5227V37.9262L42.8927 47.4819Z" fill="#FFF5F5"/>
<path d="M93.5307 39.18C92.5041 39.18 91.5307 39.0467 90.6107 38.78C89.7041 38.5 88.9641 38.1267 88.3907 37.66C88.0841 37.4333 87.9307 37.1133 87.9307 36.7C87.9307 36.42 88.0107 36.18 88.1707 35.98C88.3441 35.7667 88.5441 35.66 88.7707 35.66C89.0107 35.66 89.2841 35.7533 89.5907 35.94C90.1641 36.3533 90.7641 36.6533 91.3907 36.84C92.0174 37.0267 92.7107 37.12 93.4707 37.12C94.4441 37.12 95.1907 36.9533 95.7107 36.62C96.2307 36.2733 96.4907 35.7733 96.4907 35.12C96.4907 34.6133 96.2441 34.2267 95.7507 33.96C95.2707 33.68 94.4641 33.4133 93.3307 33.16C92.1574 32.9067 91.2041 32.6133 90.4707 32.28C89.7374 31.9467 89.1841 31.52 88.8107 31C88.4374 30.48 88.2507 29.82 88.2507 29.02C88.2507 28.1933 88.4841 27.4533 88.9507 26.8C89.4174 26.1467 90.0641 25.64 90.8907 25.28C91.7307 24.9067 92.6707 24.72 93.7107 24.72C95.6174 24.72 97.1707 25.2267 98.3707 26.24C98.5441 26.3867 98.6641 26.5333 98.7307 26.68C98.8107 26.8133 98.8507 26.9867 98.8507 27.2C98.8507 27.48 98.7641 27.7267 98.5907 27.94C98.4307 28.14 98.2374 28.24 98.0107 28.24C97.8774 28.24 97.7507 28.22 97.6307 28.18C97.5241 28.14 97.3774 28.0667 97.1907 27.96C96.6441 27.56 96.1107 27.2667 95.5907 27.08C95.0841 26.88 94.4574 26.78 93.7107 26.78C92.8041 26.78 92.0841 26.9667 91.5507 27.34C91.0307 27.7 90.7707 28.2067 90.7707 28.86C90.7707 29.4067 91.0041 29.8267 91.4707 30.12C91.9374 30.4133 92.7307 30.6867 93.8507 30.94C95.0374 31.2067 95.9974 31.5067 96.7307 31.84C97.4774 32.16 98.0441 32.5733 98.4307 33.08C98.8307 33.5867 99.0307 34.22 99.0307 34.98C99.0307 35.8067 98.7974 36.54 98.3307 37.18C97.8774 37.8067 97.2307 38.3 96.3907 38.66C95.5641 39.0067 94.6107 39.18 93.5307 39.18ZM104.685 39.12C104.298 39.12 103.985 39 103.745 38.76C103.518 38.52 103.405 38.2067 103.405 37.82V26.08C103.405 25.6933 103.518 25.3867 103.745 25.16C103.985 24.92 104.298 24.8 104.685 24.8C105.085 24.8 105.398 24.92 105.625 25.16C105.865 25.3867 105.985 25.6933 105.985 26.08V37.82C105.985 38.2067 105.865 38.52 105.625 38.76C105.398 39 105.085 39.12 104.685 39.12ZM115.91 39.18C114.883 39.18 113.91 39.0467 112.99 38.78C112.083 38.5 111.343 38.1267 110.77 37.66C110.463 37.4333 110.31 37.1133 110.31 36.7C110.31 36.42 110.39 36.18 110.55 35.98C110.723 35.7667 110.923 35.66 111.15 35.66C111.39 35.66 111.663 35.7533 111.97 35.94C112.543 36.3533 113.143 36.6533 113.77 36.84C114.396 37.0267 115.09 37.12 115.85 37.12C116.823 37.12 117.57 36.9533 118.09 36.62C118.61 36.2733 118.87 35.7733 118.87 35.12C118.87 34.6133 118.623 34.2267 118.13 33.96C117.65 33.68 116.843 33.4133 115.71 33.16C114.536 32.9067 113.583 32.6133 112.85 32.28C112.116 31.9467 111.563 31.52 111.19 31C110.816 30.48 110.63 29.82 110.63 29.02C110.63 28.1933 110.863 27.4533 111.33 26.8C111.796 26.1467 112.443 25.64 113.27 25.28C114.11 24.9067 115.05 24.72 116.09 24.72C117.996 24.72 119.55 25.2267 120.75 26.24C120.923 26.3867 121.043 26.5333 121.11 26.68C121.19 26.8133 121.23 26.9867 121.23 27.2C121.23 27.48 121.143 27.7267 120.97 27.94C120.81 28.14 120.616 28.24 120.39 28.24C120.256 28.24 120.13 28.22 120.01 28.18C119.903 28.14 119.756 28.0667 119.57 27.96C119.023 27.56 118.49 27.2667 117.97 27.08C117.463 26.88 116.836 26.78 116.09 26.78C115.183 26.78 114.463 26.9667 113.93 27.34C113.41 27.7 113.15 28.2067 113.15 28.86C113.15 29.4067 113.383 29.8267 113.85 30.12C114.316 30.4133 115.11 30.6867 116.23 30.94C117.416 31.2067 118.376 31.5067 119.11 31.84C119.856 32.16 120.423 32.5733 120.81 33.08C121.21 33.5867 121.41 34.22 121.41 34.98C121.41 35.8067 121.176 36.54 120.71 37.18C120.256 37.8067 119.61 38.3 118.77 38.66C117.943 39.0067 116.99 39.18 115.91 39.18ZM126.824 39.1C126.57 39.1 126.37 39.0267 126.224 38.88C126.077 38.72 126.004 38.5133 126.004 38.26V25.7C126.004 25.46 126.077 25.2667 126.224 25.12C126.384 24.9733 126.59 24.9 126.844 24.9H134.124C134.364 24.9 134.55 24.96 134.684 25.08C134.817 25.2 134.884 25.3733 134.884 25.6C134.884 25.8133 134.817 25.98 134.684 26.1C134.55 26.22 134.364 26.28 134.124 26.28H127.624V31.14H133.724C133.964 31.14 134.15 31.2 134.284 31.32C134.417 31.44 134.484 31.6133 134.484 31.84C134.484 32.0533 134.417 32.22 134.284 32.34C134.15 32.46 133.964 32.52 133.724 32.52H127.624V38.26C127.624 38.5133 127.55 38.72 127.404 38.88C127.27 39.0267 127.077 39.1 126.824 39.1Z" fill="#4172F2"/>
<path d="M151.276 38.06C151.33 38.1667 151.356 38.28 151.356 38.4C151.356 38.6 151.276 38.7667 151.116 38.9C150.97 39.0333 150.79 39.1 150.576 39.1C150.243 39.1 150.01 38.94 149.876 38.62L148.456 35.38H140.916L139.476 38.62C139.343 38.94 139.11 39.1 138.776 39.1C138.563 39.1 138.376 39.0333 138.216 38.9C138.056 38.7533 137.976 38.58 137.976 38.38C137.976 38.2733 138.003 38.1667 138.056 38.06L143.776 25.34C143.856 25.1533 143.976 25.0133 144.136 24.92C144.296 24.8267 144.47 24.78 144.656 24.78C144.856 24.78 145.036 24.8333 145.196 24.94C145.356 25.0333 145.476 25.1667 145.556 25.34L151.276 38.06ZM141.516 34.02H147.856L144.676 26.84L141.516 34.02ZM166.548 24.8C166.801 24.8 166.994 24.88 167.128 25.04C167.274 25.1867 167.348 25.3867 167.348 25.64V38.26C167.348 38.5133 167.274 38.72 167.128 38.88C166.994 39.0267 166.801 39.1 166.548 39.1C166.294 39.1 166.094 39.0267 165.948 38.88C165.801 38.72 165.728 38.5133 165.728 38.26V32.54H157.288V38.26C157.288 38.5133 157.214 38.72 157.068 38.88C156.921 39.0267 156.721 39.1 156.468 39.1C156.214 39.1 156.014 39.0267 155.868 38.88C155.734 38.72 155.668 38.5133 155.668 38.26V25.64C155.668 25.3867 155.734 25.1867 155.868 25.04C156.014 24.88 156.214 24.8 156.468 24.8C156.721 24.8 156.921 24.88 157.068 25.04C157.214 25.1867 157.288 25.3867 157.288 25.64V31.14H165.728V25.64C165.728 25.3867 165.801 25.1867 165.948 25.04C166.094 24.88 166.294 24.8 166.548 24.8ZM173.664 39C173.411 39 173.204 38.9267 173.044 38.78C172.897 38.6333 172.824 38.44 172.824 38.2V25.7C172.824 25.46 172.897 25.2667 173.044 25.12C173.204 24.9733 173.411 24.9 173.664 24.9H177.564C179.817 24.9 181.557 25.5133 182.784 26.74C184.024 27.9533 184.644 29.6867 184.644 31.94C184.644 34.1933 184.024 35.9333 182.784 37.16C181.544 38.3867 179.804 39 177.564 39H173.664ZM177.464 37.6C181.117 37.6 182.944 35.7133 182.944 31.94C182.944 28.18 181.117 26.3 177.464 26.3H174.464V37.6H177.464Z" fill="#4A88FF"/>
</svg>
